<svg width="80" height="80" viewBox="0 0 80 80" fill="none" xmlns="http://www.w3.org/2000/svg">
<circle cx="40" cy="40" r="40" fill="url(#paint0_linear_1527:333)"/>
<path fill-rule="evenodd" clip-rule="evenodd" d="M39.815 26.7266L52.81 57.7798C53.4161 59.228 55.0814 59.9107 56.5297 59.3047C57.9779 58.6986 58.6607 57.0333 58.0546 55.585L43.9283 21.8287C42.3942 18.1628 37.196 18.1749 35.6789 21.8479L29.8452 35.9717H24.3663C22.7964 35.9717 21.5237 37.2444 21.5237 38.8144C21.5237 40.3843 22.7964 41.657 24.3663 41.657H27.4969L21.739 55.5972C21.1396 57.0482 21.8301 58.7104 23.2811 59.3097C24.7322 59.9091 26.3943 59.2186 26.9937 57.7676L33.648 41.657H38.9856C40.5556 41.657 41.8283 40.3843 41.8283 38.8144C41.8283 37.2444 40.5556 35.9717 38.9856 35.9717H35.9963L39.815 26.7266Z" fill="white"/>
<defs>
<linearGradient id="paint0_linear_1527:333" x1="67.6142" y1="11.7766" x2="15.2284" y2="74.5178" gradientUnits="userSpaceOnUse">
<stop stop-color="#B054A0"/>
<stop offset="0.759219" stop-color="#33B6C6"/>
</linearGradient>
</defs>
</svg>
