<svg width="20" height="20" viewBox="0 0 20 20" fill="none" xmlns="http://www.w3.org/2000/svg">
<path d="M11.8849 9.66699L18.9419 2.60999C19.1929 2.36699 19.3489 2.02699 19.3489 1.65099C19.3489 0.914993 18.7519 0.317993 18.0159 0.317993C17.6399 0.317993 17.2999 0.473993 17.0569 0.724993L9.99888 7.78299L2.94188 0.725993C2.70188 0.493993 2.37588 0.351994 2.01588 0.351994C1.27988 0.351994 0.682879 0.948994 0.682879 1.68499C0.682879 2.04499 0.825879 2.37199 1.05788 2.61199L8.11488 9.66899L1.05788 16.726C0.806879 16.969 0.650879 17.309 0.650879 17.685C0.650879 18.421 1.24788 19.018 1.98388 19.018C2.35988 19.018 2.69988 18.862 2.94288 18.611L10.0009 11.553L17.0579 18.61C17.2979 18.842 17.6239 18.984 17.9839 18.984C18.7199 18.984 19.3169 18.387 19.3169 17.651C19.3169 17.291 19.1739 16.964 18.9419 16.724L11.8849 9.66699Z" fill="black"/>
</svg>
