<svg width="32" height="32" viewBox="0 0 32 32" fill="none" xmlns="http://www.w3.org/2000/svg">
<path d="M17.885 16.667L24.942 9.60999C25.193 9.36699 25.349 9.02699 25.349 8.65099C25.349 7.91499 24.752 7.31799 24.016 7.31799C23.64 7.31799 23.3 7.47399 23.057 7.72499L15.999 14.783L8.942 7.72599C8.702 7.49399 8.376 7.35199 8.016 7.35199C7.28 7.35199 6.683 7.94899 6.683 8.68499C6.683 9.04499 6.826 9.37199 7.058 9.61199L14.115 16.669L7.058 23.726C6.807 23.969 6.651 24.309 6.651 24.685C6.651 25.421 7.248 26.018 7.984 26.018C8.36 26.018 8.7 25.862 8.943 25.611L16.001 18.553L23.058 25.61C23.298 25.842 23.624 25.984 23.984 25.984C24.72 25.984 25.317 25.387 25.317 24.651C25.317 24.291 25.174 23.964 24.942 23.724L17.885 16.667Z" fill="black"/>
</svg>
