<svg width="32" height="32" viewBox="0 0 32 32" fill="none" xmlns="http://www.w3.org/2000/svg">
<path d="M25.539 30H14.461C12.366 29.997 10.669 28.3 10.667 26.205V15.128C10.669 13.033 12.367 11.336 14.461 11.333H25.539C27.634 11.336 29.331 13.033 29.333 15.128V26.205C29.331 28.3 27.633 29.997 25.539 30ZM14.461 14C13.838 14.001 13.334 14.505 13.333 15.128V26.205C13.333 26.828 13.838 27.333 14.461 27.333H25.539C26.162 27.332 26.666 26.828 26.667 26.205V15.128C26.667 14.505 26.162 14 25.539 14H14.461ZM7.99999 20.667C7.99999 19.931 7.40299 19.334 6.66699 19.334H6.46099C5.83799 19.333 5.33399 18.829 5.33299 18.206V7.12898C5.33299 6.50598 5.83799 6.00098 6.46099 6.00098H17.539C18.162 6.00198 18.666 6.50598 18.667 7.12898V7.33398C18.667 8.06998 19.264 8.66698 20 8.66698C20.736 8.66698 21.333 8.06998 21.333 7.33398V7.12898C21.331 5.03398 19.633 3.33698 17.539 3.33398H6.46099C4.36599 3.33698 2.66899 5.03398 2.66699 7.12898V18.206C2.66899 20.301 4.36699 21.998 6.46099 22.001H6.66699C7.40299 22.001 7.99999 21.404 7.99999 20.668V20.667Z" fill="black"/>
</svg>
