<svg width="32" height="32" viewBox="0 0 32 32" fill="none" xmlns="http://www.w3.org/2000/svg">
<path d="M22 24.667H19.6C18.864 24.667 18.267 24.07 18.267 23.334C18.267 22.598 18.864 22.001 19.6 22.001H22C24.622 21.805 26.676 19.63 26.676 16.974C26.676 16.866 26.673 16.759 26.666 16.653L26.667 16.668C26.673 16.576 26.676 16.469 26.676 16.362C26.676 13.707 24.622 11.531 22.017 11.336L22 11.335H19.6C18.864 11.335 18.267 10.738 18.267 10.002C18.267 9.26602 18.864 8.66901 19.6 8.66901H22C26.094 8.86501 29.34 12.232 29.34 16.358C29.34 16.467 29.338 16.576 29.333 16.685V16.67C29.337 16.763 29.339 16.872 29.339 16.981C29.339 21.106 26.094 24.474 22.017 24.669L21.999 24.67L22 24.667ZM12.4 24.667H10C5.906 24.471 2.66 21.103 2.66 16.978C2.66 16.869 2.662 16.76 2.667 16.651L2.666 16.666C2.662 16.573 2.66 16.464 2.66 16.355C2.66 12.23 5.905 8.86202 9.982 8.66702L10 8.66602H12.4C13.136 8.66602 13.733 9.26301 13.733 9.99901C13.733 10.735 13.136 11.332 12.4 11.332H10C7.378 11.528 5.324 13.703 5.324 16.359C5.324 16.467 5.327 16.574 5.334 16.68L5.333 16.665C5.327 16.757 5.324 16.864 5.324 16.971C5.324 19.626 7.378 21.802 9.983 21.997L10 21.998H12.4C13.136 21.998 13.733 22.595 13.733 23.331C13.733 24.067 13.136 24.664 12.4 24.664V24.667ZM22.667 16.667C22.667 15.931 22.07 15.334 21.334 15.334H10.667C9.931 15.334 9.334 15.931 9.334 16.667C9.334 17.403 9.931 18 10.667 18H21.334C22.07 18 22.667 17.403 22.667 16.667Z" fill="black"/>
</svg>
