<svg width="17" height="17" viewBox="0 0 17 17" fill="none" xmlns="http://www.w3.org/2000/svg">
<path d="M8.33313 16.6663C3.73063 16.6663 0 12.935 0 8.33313C0 3.73125 3.73125 0 8.33313 0C12.9356 0 16.6663 3.73125 16.6663 8.33313C16.6606 12.9331 12.9325 16.6606 8.33313 16.6663ZM8.33313 1.66625C4.65125 1.66625 1.66625 4.65125 1.66625 8.33313C1.66625 12.015 4.65125 15 8.33313 15C12.015 15 15 12.015 15 8.33313C14.9956 4.65313 12.0131 1.67063 8.33313 1.66625ZM8.775 12.1081C8.8325 12.0538 8.87812 11.9869 8.90625 11.9119L8.9075 11.9081C8.93938 11.8375 8.9575 11.755 8.9575 11.6688C8.9575 11.6681 8.9575 11.6675 8.9575 11.6663C8.95688 11.5788 8.93875 11.4956 8.90625 11.4206L8.90812 11.4244C8.87437 11.3469 8.83 11.2806 8.775 11.2244C8.66188 11.1119 8.50563 11.0425 8.33313 11.0425C8.24625 11.0425 8.16313 11.06 8.0875 11.0925L8.09188 11.0906C8.01438 11.1238 7.94812 11.1688 7.89187 11.2238C7.76937 11.3381 7.69312 11.5006 7.69312 11.6813C7.69312 12.0263 7.97312 12.3063 8.31812 12.3063C8.49875 12.3063 8.66125 12.2306 8.775 12.1081ZM8.90063 9.07875V8.675C9.59875 8.3525 10.9 7.57563 10.9 6.2575C10.9 6.25688 10.9 6.25563 10.9 6.25438C10.9 4.805 9.725 3.63063 8.27625 3.63063C7.13938 3.63063 6.17125 4.35375 5.80688 5.365L5.80125 5.38312C5.77438 5.45 5.75875 5.52813 5.75875 5.60938C5.75875 5.95438 6.03875 6.23438 6.38375 6.23438C6.66187 6.23438 6.89688 6.05313 6.97813 5.8025L6.97937 5.79813C7.17312 5.25875 7.68 4.88 8.27563 4.88C9.035 4.88 9.65 5.49563 9.65 6.25438C9.65 6.25563 9.65 6.25625 9.65 6.2575C9.65 6.97063 8.48438 7.52563 8.07688 7.66375C7.8275 7.75 7.65125 7.9825 7.65063 8.25625V9.08C7.65063 9.425 7.93063 9.705 8.27563 9.705C8.62063 9.705 8.90063 9.425 8.90063 9.08V9.07875Z" fill="#5D5D5D"/>
</svg>
