<svg width="32" height="32" viewBox="0 0 32 32" fill="none" xmlns="http://www.w3.org/2000/svg">
<path d="M25.333 4.66699H6.66601C3.72201 4.66999 1.33601 7.05599 1.33301 9.99999V23.334C1.33601 26.278 3.72201 28.664 6.66601 28.667H25.333C28.277 28.664 30.663 26.278 30.666 23.334V9.99999C30.663 7.05599 28.277 4.66999 25.333 4.66699ZM28 23.333C27.998 24.805 26.805 25.998 25.334 26H6.66701C5.19501 25.998 4.00201 24.805 4.00001 23.334V9.99999C4.00201 8.52799 5.19501 7.33499 6.66701 7.33299H25.334C26.806 7.33499 27.999 8.52799 28.001 9.99999L28 23.333ZM26.256 15.049C26.203 15.175 26.13 15.283 26.04 15.374L22.04 19.374C21.861 19.544 21.619 19.649 21.352 19.649C20.8 19.649 20.352 19.201 20.352 18.649C20.352 18.382 20.457 18.139 20.627 17.96L22.92 15.667H14.667C14.115 15.667 13.667 15.219 13.667 14.667C13.667 14.115 14.115 13.667 14.667 13.667H22.92L20.627 11.374C20.461 11.196 20.359 10.956 20.359 10.692C20.359 10.14 20.807 9.69199 21.359 9.69199C21.623 9.69199 21.863 9.79399 22.041 9.96099L22.04 9.95999L26.04 13.96C26.22 14.141 26.331 14.391 26.331 14.667C26.331 14.805 26.303 14.936 26.253 15.056L26.255 15.049H26.256ZM18.333 18.667C18.333 19.219 17.885 19.667 17.333 19.667H9.08001L11.373 21.96C11.566 22.143 11.686 22.401 11.686 22.686C11.686 23.238 11.238 23.686 10.686 23.686C10.4 23.686 10.142 23.566 9.96001 23.373L5.96001 19.373C5.78001 19.192 5.66901 18.942 5.66901 18.666C5.66901 18.39 5.78001 18.14 5.96001 17.959L9.96001 13.959C10.139 13.789 10.381 13.685 10.648 13.685C11.2 13.685 11.648 14.133 11.648 14.685C11.648 14.952 11.543 15.195 11.373 15.374L9.08001 17.667H17.333C17.885 17.667 18.333 18.115 18.333 18.667Z" fill="#909090"/>
</svg>
