<svg width="80" height="80" viewBox="0 0 80 80" fill="none" xmlns="http://www.w3.org/2000/svg">
<circle cx="40" cy="40" r="40" fill="#2775CA"/>
<path fill-rule="evenodd" clip-rule="evenodd" d="M10.0215 42.6939C9.06139 30.8519 14.8958 17.4873 31.4997 11.6357C32.138 11.4107 32.8 11.8907 32.8 12.5676L32.8 16.1263C32.7999 16.5335 32.548 16.9009 32.1732 17.0599C18.8321 22.7187 14.3973 32.7934 15.2001 42.6939C16.0166 52.7649 21.561 58.9105 31.5152 63.766C31.816 63.9128 32.0286 64.1991 32.076 64.5305L32.6028 68.2185C32.6997 68.8965 32.1009 69.468 31.4362 69.3027C19.3636 66.3002 10.957 54.2307 10.0215 42.6939Z" fill="white"/>
<path fill-rule="evenodd" clip-rule="evenodd" d="M70.7785 42.6939C71.7387 30.8519 65.9043 17.4873 49.3004 11.6357C48.662 11.4107 48 11.8907 48 12.5676L48.0001 16.1263C48.0001 16.5335 48.252 16.9009 48.6269 17.0599C61.9679 22.7187 66.4027 32.7934 65.6 42.6939C64.7834 52.7649 59.239 58.9105 49.2849 63.766C48.984 63.9128 48.7714 64.1991 48.7241 64.5305L48.1972 68.2185C48.1004 68.8965 48.6992 69.468 49.3638 69.3027C61.4364 66.3002 69.8431 54.2307 70.7785 42.6939Z" fill="white"/>
<path fill-rule="evenodd" clip-rule="evenodd" d="M39.0601 18.8795C39.0601 18.1744 39.6316 17.6 40.3396 17.6C40.3945 17.6 40.4467 17.6038 40.4942 17.6092H41.5431C41.5904 17.6034 41.6423 17.6 41.6946 17.6C42.4003 17.6 42.9723 18.172 42.9723 18.8776C42.9723 18.933 42.9684 18.9841 42.9631 19.0305V22.0522C47.9701 22.4954 51.9488 26.4316 52.4554 31.3977L52.456 31.4036L52.4612 31.4632V31.4805C52.4612 31.9137 52.3701 32.3085 52.107 32.5935C51.8375 32.8854 51.4609 32.984 51.0678 32.984H48.6517C48.624 32.9858 48.5874 32.9877 48.5487 32.9877C47.7861 32.9877 47.1623 32.3843 47.1342 31.6267C46.7723 29.4622 45.0917 27.7737 42.9631 27.4039V38.0477C45.2588 38.9063 47.7163 39.9027 49.6206 41.4369C51.6191 43.0469 53.0138 45.2538 53.0138 48.4845V48.5792L53.0116 48.5837C52.9593 54.3144 48.2034 57.6718 42.8529 58.1373V61.0516C42.8587 61.0989 42.8621 61.1508 42.8621 61.2031C42.8621 61.9082 42.2906 62.4826 41.5826 62.4826C41.5273 62.4826 41.4762 62.4787 41.4297 62.4734H40.3809C40.3336 62.4791 40.2818 62.4826 40.2294 62.4826C39.5243 62.4826 38.9499 61.9111 38.9499 61.2031C38.9499 61.1478 38.9538 61.0967 38.9591 61.0502V58.1162C36.3311 57.7385 33.9523 56.7619 32.1505 55.1665C30.2628 53.4948 29.0293 51.1612 28.8012 48.1883L28.8 48.173V48.1577C28.8 47.724 28.8918 47.3293 29.1551 47.0446C29.4247 46.753 29.801 46.6542 30.1934 46.6542H32.7177C32.7449 46.6525 32.7805 46.6505 32.8208 46.6505C33.582 46.6505 34.2049 47.2516 34.2352 48.0073C34.6703 50.4827 36.6169 52.4003 39.0693 52.7878V41.9186C36.8311 41.0591 34.5055 40.0614 32.72 38.5234C30.8443 36.9078 29.5712 34.7019 29.5712 31.4842C29.5712 28.6014 30.7581 26.3391 32.5952 24.7482C34.3367 23.2401 36.6497 22.3447 39.0693 22.0672V19.0309C39.0636 18.9836 39.0601 18.9318 39.0601 18.8795ZM36.0605 28.5524C35.2655 29.2478 34.7888 30.2137 34.7888 31.4805C34.7888 33.8136 36.4259 35.3281 38.9591 36.4995V27.3028C37.774 27.5011 36.7775 27.9251 36.0605 28.5524ZM46.159 45.291C45.3078 44.5202 44.1574 43.8886 42.8511 43.339V52.9095C44.2569 52.7526 45.424 52.2954 46.254 51.6037C47.1574 50.8508 47.6839 49.8035 47.6842 48.4874C47.6839 47.1884 47.116 46.1576 46.159 45.291Z" fill="white"/>
</svg>
