<svg width="80" height="80" viewBox="0 0 80 80" fill="none" xmlns="http://www.w3.org/2000/svg">
<circle cx="40" cy="40" r="40" fill="#53AE94"/>
<path d="M44.6028 32.6381V27.0406H57.7827V18.3335H21.7747V27.0405H34.9537V32.6596C24.308 33.2039 16.333 35.4347 16.333 38.1044C16.333 40.774 24.308 43.0049 34.9537 43.5493V60.993C36.5837 61.3262 38.2712 61.5004 39.9997 61.5004C41.5724 61.5004 43.1112 61.3559 44.6028 61.0791V43.5708C55.4699 43.0664 63.6663 40.8109 63.6663 38.1044C63.6663 35.3979 55.4699 33.1425 44.6028 32.6381ZM39.9997 41.545C28.1248 41.545 18.4983 39.7561 18.4983 37.5488C18.4983 35.6645 25.5137 34.0847 34.9537 33.6633V40.0636C36.5541 40.2942 38.1667 40.4101 39.7783 40.4101C41.3909 40.4101 43.0035 40.2942 44.6029 40.0636V33.6438C54.2654 34.0364 61.5002 35.6347 61.5002 37.5487C61.5001 39.756 51.8735 41.545 39.9997 41.545Z" fill="#F0EFEB"/>
</svg>
