<svg width="80" height="80" viewBox="0 0 80 80" fill="none" xmlns="http://www.w3.org/2000/svg">
<path d="M77.9048 40.0686C77.9048 61.0639 60.9446 78.084 40.0232 78.084C19.1018 78.084 2.1416 61.0639 2.1416 40.0686C2.1416 19.0733 19.1018 2.05322 40.0232 2.05322C60.9446 2.05322 77.9048 19.0733 77.9048 40.0686Z" fill="black"/>
<path d="M40.5539 58.4374V52.9534H37.9542V58.4374H34.7178V52.9534H28.1389L28.7225 49.0134L31.0039 49.0667C31.6936 49.0667 32.3303 48.5875 32.3303 48.1615C32.3303 43.4832 32.4052 38.1449 32.3834 33.4665C32.3834 32.4549 31.5983 31.6029 30.1585 31.7288L30.1687 31.7274H28.1535V28.2738H34.7713V22.9244H37.9651V28.2738H40.5669V22.9244H43.7434V28.3362L44.0927 28.3594C46.2584 28.3942 48.2596 29.0631 49.929 30.186L49.8912 30.1614C52.8969 32.6436 52.5975 37.3532 48.9366 39.3232C50.2084 39.6074 50.6972 39.8383 51.7818 40.6018L51.757 40.5858C52.9301 41.5216 53.6753 42.9478 53.6753 44.5482C53.6753 44.6483 53.6723 44.7484 53.6665 44.8485V44.8354C53.6956 45.056 53.7116 45.3128 53.7116 45.5725C53.7116 51.1977 49.1489 52.6872 43.8293 52.9534V58.4374H40.5539ZM40.2228 41.6626C39.3995 41.6626 38.8951 41.6828 38.0727 41.7192V49.2228C39.4572 49.2228 40.5239 49.1573 41.9082 49.1314C48.2174 49.0134 49.9447 42.4113 42.0071 41.7017H41.9926C41.4191 41.6727 40.7962 41.6626 40.2199 41.6626H40.2228ZM38.1895 31.8908L37.8388 31.9198L37.9392 38.5923L38.2885 38.6112C38.2885 38.6112 38.974 38.6533 39.808 38.6533C40.2271 38.6533 40.6841 38.6417 41.1077 38.6112C48.3574 37.3048 45.7533 32.3484 42.8353 32.1541C41.5631 31.8646 39.9997 31.7488 38.1895 31.8908Z" fill="white"/>
<path fill-rule="evenodd" clip-rule="evenodd" d="M62.1793 17.9224C56.7205 12.396 49.4065 9.10766 41.6632 8.69858L41.797 6.14646C50.1725 6.58893 58.0836 10.1457 63.988 16.1233C69.8924 22.1009 73.3668 30.0709 73.734 38.4795L71.1898 38.5914C70.8503 30.8174 67.6381 23.4489 62.1793 17.9224Z" fill="white"/>
<path fill-rule="evenodd" clip-rule="evenodd" d="M38.3009 8.70305C30.5587 9.13267 23.2534 12.4404 17.8092 17.9813C12.365 23.5223 9.17214 30.8993 8.85314 38.6741L6.30864 38.569C6.65368 30.1594 10.1071 22.1802 15.9958 16.187C21.8844 10.1937 29.7861 6.61599 38.1603 6.15129L38.3009 8.70305Z" fill="white"/>
<path fill-rule="evenodd" clip-rule="evenodd" d="M8.85787 41.3635C9.20501 49.1372 12.4245 56.5025 17.8887 62.0235C23.353 67.5446 30.6702 70.8256 38.414 71.227L38.2826 73.7793C29.9067 73.3451 21.9921 69.7962 16.0818 63.8245C10.1716 57.8527 6.68924 49.8862 6.31376 41.4779L8.85787 41.3635Z" fill="white"/>
<path fill-rule="evenodd" clip-rule="evenodd" d="M40.1391 13.5537C33.5983 13.5248 27.2812 15.9415 22.4194 20.3324L20.7158 18.4328C26.0481 13.6169 32.9766 10.9664 40.1503 10.9981C47.3241 11.0298 54.229 13.7413 59.5189 18.6041L57.7987 20.4887C52.9755 16.0549 46.6799 13.5826 40.1391 13.5537Z" fill="white"/>
<path fill-rule="evenodd" clip-rule="evenodd" d="M20.4164 22.3479C16.0538 27.2385 13.6624 33.5842 13.7084 40.148C13.7545 46.7118 16.2348 53.0231 20.6657 57.8516L18.7923 59.5828C13.9327 54.2871 11.2124 47.365 11.1618 40.166C11.1113 32.967 13.7341 26.0072 18.519 20.6433L20.4164 22.3479Z" fill="white"/>
<path fill-rule="evenodd" clip-rule="evenodd" d="M22.2669 59.453C27.0944 63.882 33.3925 66.348 39.9333 66.3704C46.4741 66.3928 52.7888 63.9699 57.6463 59.5741L59.3518 61.472C54.0242 66.2933 47.0984 68.9506 39.9246 68.9261C32.7508 68.9015 25.8433 66.1968 20.5486 61.3392L22.2669 59.453Z" fill="white"/>
<path fill-rule="evenodd" clip-rule="evenodd" d="M66.3385 39.9587C66.3376 33.3948 63.9009 27.0664 59.5034 22.2073L61.3886 20.4891C66.2117 25.8184 68.8842 32.7592 68.8851 39.9584C68.8861 47.1576 66.2153 54.0991 61.3936 59.4296L59.508 57.7119C63.9042 52.8517 66.3393 46.5227 66.3385 39.9587Z" fill="white"/>
<path fill-rule="evenodd" clip-rule="evenodd" d="M62.0857 62.0965C67.5679 56.5934 70.8115 49.2388 71.1841 41.4663L73.7278 41.5891C73.3248 49.996 69.8165 57.9511 63.8867 63.9033C57.9569 69.8556 50.0308 73.3784 41.6535 73.785L41.5305 71.2323C49.2755 70.8564 56.6034 67.5995 62.0857 62.0965Z" fill="white"/>
</svg>
