<svg width="77" height="26" viewBox="0 0 77 26" fill="none" xmlns="http://www.w3.org/2000/svg">
<path d="M24.1415 14.5919H30.6649V16.005H25.8181V19.0286H30.0552V20.4569H25.8181V24.7265H24.1415V14.5919Z" fill="white"/>
<path d="M32.475 14.4399H34.182V15.8834H32.475V14.4399ZM32.5207 17.1445H34.1211L34.1363 24.7265H32.5207V17.1445Z" fill="white"/>
<path d="M36.4342 17.7219C36.8915 17.4889 37.4452 17.3015 38.0956 17.1597C38.756 17.0078 39.386 16.9318 39.9855 16.9318C41.0524 16.9318 41.8399 17.1547 42.348 17.6004C42.856 18.0461 43.1101 18.7399 43.1101 19.682V24.7265H41.5097V19.8947C41.5097 18.8311 40.9051 18.2993 39.6959 18.2993C39.1168 18.2993 38.563 18.3955 38.0346 18.588V24.7265H36.4342V17.7219Z" fill="white"/>
<path d="M48.6723 16.9318C49.5055 16.9318 50.2117 17.1344 50.7909 17.5396C51.3802 17.9346 51.6698 18.5779 51.6597 19.4693V23.1159C51.6597 23.8047 51.3548 24.2859 50.7452 24.5594C50.1355 24.8227 49.2667 24.9544 48.1388 24.9544C47.2345 24.9544 46.4877 24.767 45.8983 24.3922C45.309 24.0174 45.0143 23.3894 45.0143 22.5081C45.0143 21.6775 45.2531 21.0545 45.7307 20.6392C46.2184 20.2239 46.9043 20.0163 47.7883 20.0163C48.7028 20.0163 49.4649 20.1986 50.0745 20.5633V19.8339C50.0745 18.8007 49.4496 18.2841 48.1998 18.2841C47.7527 18.2841 47.3056 18.355 46.8586 18.4968C46.4115 18.6285 46.0406 18.8159 45.7459 19.059V17.57C46.0304 17.3876 46.4419 17.2357 46.9805 17.1141C47.5292 16.9926 48.0931 16.9318 48.6723 16.9318ZM48.3217 23.7085C48.9619 23.7085 49.4141 23.6629 49.6783 23.5717C49.9424 23.4806 50.0745 23.2982 50.0745 23.0247V21.5509C49.5563 21.328 48.9873 21.2166 48.3675 21.2166C47.7883 21.2166 47.3463 21.3179 47.0415 21.5205C46.7468 21.7231 46.5994 22.027 46.5994 22.4322C46.5994 22.8576 46.7671 23.1767 47.1024 23.3894C47.4479 23.6021 47.8543 23.7085 48.3217 23.7085Z" fill="white"/>
<path d="M53.9234 17.7219C54.3807 17.4889 54.9344 17.3015 55.5848 17.1597C56.2452 17.0078 56.8752 16.9318 57.4747 16.9318C58.5416 16.9318 59.3291 17.1547 59.8372 17.6004C60.3452 18.0461 60.5992 18.7399 60.5992 19.682V24.7265H58.9989V19.8947C58.9989 18.8311 58.3943 18.2993 57.1851 18.2993C56.6059 18.2993 56.0522 18.3955 55.5238 18.588V24.7265H53.9234V17.7219Z" fill="white"/>
<path d="M66.2225 24.8784C65.1454 24.8784 64.2461 24.5695 63.5247 23.9516C62.8134 23.3337 62.4578 22.3359 62.4578 20.9583C62.4578 19.5402 62.8083 18.5171 63.5094 17.8891C64.2207 17.2509 65.12 16.9318 66.2072 16.9318C67.0303 16.9318 67.8127 17.0838 68.5544 17.3876V18.8159C67.7822 18.4918 67.076 18.3297 66.4358 18.3297C65.6331 18.3297 65.0336 18.5323 64.6373 18.9375C64.2411 19.3325 64.0429 19.9656 64.0429 20.8368C64.0429 21.7484 64.236 22.417 64.6221 22.8424C65.0082 23.2577 65.628 23.4654 66.4816 23.4654C67.1725 23.4654 67.8686 23.2982 68.5697 22.964V24.3922C67.8381 24.7164 67.0557 24.8784 66.2225 24.8784Z" fill="white"/>
<path d="M73.5704 16.9166C74.7592 16.9166 75.628 17.3015 76.1767 18.0714C76.7355 18.8311 77.0099 19.8998 76.9997 21.2774H71.6347C71.6855 22.027 71.9039 22.5993 72.2901 22.9943C72.6863 23.3793 73.2452 23.5717 73.9667 23.5717C74.4341 23.5717 74.8811 23.516 75.3079 23.4046C75.7347 23.283 76.1106 23.1311 76.4358 22.9488V24.4378C75.6432 24.7822 74.7338 24.9544 73.7075 24.9544C72.5593 24.9544 71.655 24.61 70.9945 23.9212C70.3442 23.2223 70.0191 22.2346 70.0191 20.9583C70.0191 19.6516 70.329 18.6538 70.9488 17.965C71.5686 17.2661 72.4425 16.9166 73.5704 16.9166ZM73.5246 18.2233C72.9861 18.2233 72.5644 18.3651 72.2596 18.6488C71.9548 18.9324 71.7566 19.4136 71.6652 20.0922H75.3689C75.2978 19.4439 75.1149 18.9729 74.8202 18.6792C74.5255 18.3753 74.0937 18.2233 73.5246 18.2233Z" fill="white"/>
<path d="M17.6156 0C19.2317 0 20.5419 1.30606 20.5419 2.91716V22.7538C20.5419 24.3649 19.2317 25.671 17.6156 25.671C15.9995 25.671 14.6894 24.3649 14.6894 22.7538V2.91715C14.6894 1.30605 15.9995 0 17.6156 0Z" fill="white"/>
<path d="M9.68574 8.16809C11.1563 8.16809 12.3484 9.3565 12.3484 10.8224V17.9008C12.3484 19.3668 11.1563 20.5552 9.68574 20.5552C8.2152 20.5552 7.0231 19.3668 7.0231 17.9008V10.8224C7.0231 9.35649 8.2152 8.16809 9.68574 8.16809Z" fill="white"/>
<path d="M5.32529 7.32186C5.32529 5.85589 4.13319 4.66748 2.66265 4.66748C1.19211 4.66748 0 5.85588 0 7.32186V8.20665C0 9.67263 1.19211 10.861 2.66265 10.861C4.13319 10.861 5.32529 9.67263 5.32529 8.20665V7.32186Z" fill="white"/>
<path d="M9.68574 1.16687C11.1563 1.16687 12.3484 2.35528 12.3484 3.82125V4.70604C12.3484 6.17202 11.1563 7.36043 9.68574 7.36043C8.2152 7.36043 7.0231 6.17202 7.0231 4.70604V3.82125C7.0231 2.35527 8.2152 1.16687 9.68574 1.16687Z" fill="white"/>
<path d="M30.6912 9.51047L28.6316 6.50191L26.8008 9.51047H24.2978L27.4587 4.77662L24.1833 0H27.0582L29.1322 3.02282L30.9057 0H33.466L30.3336 4.77662L33.5661 9.51047H30.6912Z" fill="white"/>
<path d="M34.7348 0H41.2713V1.78232H37.0519V3.84982H40.7135V5.6464H37.0519V7.72815H41.2713V9.51047H34.7348V0Z" fill="white"/>
<path d="M51.5376 0V9.51047H49.7926L45.3444 3.72149V9.51047H43.2132V0H45.187L49.4064 5.66065V0H51.5376Z" fill="white"/>
<path d="M53.5633 0H57.3965C58.9985 0 60.1856 0.39924 60.958 1.19772C61.7303 1.9867 62.1165 3.17491 62.1165 4.76236C62.1165 6.34031 61.7303 7.52853 60.958 8.32701C60.1856 9.11598 58.9985 9.51047 57.3965 9.51047H53.5633V0ZM57.1248 7.72815C57.9925 7.72815 58.6457 7.48575 59.0843 7.00096C59.5229 6.51617 59.7422 5.76997 59.7422 4.76236C59.7422 3.73575 59.5229 2.9848 59.0843 2.50951C58.6457 2.02472 57.9925 1.78232 57.1248 1.78232H55.8804V7.72815H57.1248Z" fill="white"/>
</svg>
