<svg width="122" height="122" viewBox="0 0 122 122" fill="none" xmlns="http://www.w3.org/2000/svg">
<circle cx="60.6494" cy="60.6619" r="60.5" fill="white"/>
<path d="M35.7151 42.1887C49.9131 28.2846 72.9275 28.2846 87.1439 42.1887L88.8521 43.8602C89.5684 44.5581 89.5684 45.6785 88.8521 46.3765L83.0112 52.1071C82.6622 52.4561 82.0745 52.4561 81.7255 52.1071L79.3745 49.8112C69.4744 40.1132 53.4029 40.1132 43.5029 49.8112L40.9866 52.2724C40.6376 52.6214 40.0498 52.6214 39.7008 52.2724L33.8416 46.5418C33.1253 45.8438 33.1253 44.7234 33.8416 44.0255L35.7151 42.1887ZM99.2297 54.0173L104.428 59.1051C105.144 59.8031 105.144 60.9235 104.428 61.6215L80.9724 84.5991C80.2561 85.2971 79.1173 85.2971 78.401 84.5991L61.7417 68.2888C61.5581 68.1235 61.2826 68.1235 61.0989 68.2888L44.458 84.5991C43.7417 85.2971 42.6029 85.2971 41.8866 84.5991L18.413 61.6398C17.6967 60.9419 17.6967 59.8215 18.413 59.1235L23.611 54.0357C24.3273 53.3378 25.4661 53.3378 26.1824 54.0357L42.8417 70.346C43.0253 70.5113 43.3008 70.5113 43.4845 70.346L60.1254 54.0357C60.8417 53.3378 61.9805 53.3378 62.6969 54.0357L79.3561 70.346C79.5398 70.5113 79.8153 70.5113 79.999 70.346L96.6582 54.0357C97.3562 53.3194 98.5133 53.3194 99.2297 54.0173Z" fill="#3A99FB"/>
</svg>
